<?xml version="1.0" standalone="no"?><!DOCTYPE svg PUBLIC "-//W3C//DTD SVG 1.1//EN" "http://www.w3.org/Graphics/SVG/1.1/DTD/svg11.dtd"><svg t="1546480298682" class="icon" style="" viewBox="0 0 1024 1024" version="1.1" xmlns="http://www.w3.org/2000/svg" p-id="1105" xmlns:xlink="http://www.w3.org/1999/xlink" width="200" height="200"><defs><style type="text/css"></style></defs><path d="M310.72 489.28a32 32 0 0 1-45.44 45.44l-128-128a32 32 0 0 1 0-45.44l128-128a32 32 0 1 1 45.44 45.44L205.12 384z" p-id="1106"></path><path d="M160 416a32 32 0 0 1 0-64h384a32 32 0 0 1 0 64z m553.28 118.72a32 32 0 0 1 45.44-45.44l128 128a32 32 0 0 1 0 45.44l-128 128a32 32 0 0 1-45.44-45.44L818.88 640z" p-id="1107"></path><path d="M864 608a32 32 0 0 1 0 64H480a32 32 0 0 1 0-64z" p-id="1108"></path></svg>